<svg data-logo="logo" xmlns="http://www.w3.org/2000/svg" viewBox="0 0 169 48">
            <g style="opacity: 1;" id="logogram" transform="translate(0, 24) rotate(0)"></g>
            <g style="opacity: 1;" id="logotype" transform="translate(0, 1)"><path fill="#303030" d="M34.59 12.18L33.72 12.35Q33.53 12.35 33.53 12.09Q33.53 11.83 33.68 11.76Q33.82 11.68 34.17 11.50Q34.52 11.32 34.66 11.26Q34.79 11.20 35.09 11.07Q35.38 10.93 35.56 10.88Q35.73 10.83 35.99 10.74L35.99 10.74Q36.42 10.62 37.06 10.62Q37.70 10.62 38.38 11.07Q39.05 11.51 39.05 12.23L39.05 12.23Q39.05 13.71 37.75 16.17Q36.45 18.62 34.42 21.27Q32.39 23.92 29.86 26.65Q27.33 29.39 24.92 31.54Q22.51 33.69 20.38 35.06Q18.25 36.43 17.11 36.43L17.11 36.43Q14.68 36.43 14.68 34.22L14.68 34.22Q14.68 31.13 18.18 25.28L18.18 25.28Q11.36 33.35 6.77 35.69L6.77 35.69Q5.57 36.31 4.94 36.31Q4.31 36.31 3.39 35.53Q2.48 34.75 2.48 34.00L2.48 34.00Q2.48 29.75 8.39 22.09L8.39 22.09Q10.65 19.17 14.01 15.56L14.01 15.56Q11.07 18.11 9.54 18.11L9.54 18.11Q8.72 18.11 8.32 17.30L8.32 17.30Q7.96 16.72 7.96 16.20Q7.96 15.68 8.65 15.06Q9.33 14.45 9.45 14.45Q9.57 14.45 9.67 14.54Q9.78 14.62 9.78 14.69L9.78 14.69Q9.54 14.95 9.54 15.02Q9.54 15.10 9.74 15.10Q9.95 15.10 13.16 13.14Q16.37 11.19 16.68 11.19L16.68 11.19Q17.57 11.19 18.39 11.67Q19.21 12.16 19.21 12.49Q19.21 12.83 18.87 13.37Q18.53 13.92 14.80 18.73Q11.07 23.54 9.38 26.01Q7.69 28.48 6.90 30.06Q6.12 31.64 6.12 31.98Q6.12 32.33 6.22 32.33L6.22 32.33Q6.94 32.33 11.36 27.99Q15.77 23.66 19.77 19.43Q23.77 15.20 24.12 14.74Q24.47 14.28 24.88 14.08Q25.29 13.89 26.11 13.89L26.11 13.89Q28.40 13.89 28.40 14.76L28.40 14.76Q28.40 15.12 27.40 16.28Q26.40 17.44 25.99 17.97L25.99 17.97Q23.86 20.69 21.23 25.63Q18.61 30.57 18.61 31.95L18.61 31.95Q18.61 32.33 18.86 32.33Q19.11 32.33 20.33 31.36Q21.55 30.39 23.55 28.47Q25.55 26.55 28.10 23.71Q30.64 20.88 32.96 17.41Q35.27 13.95 35.27 13.07Q35.27 12.18 34.59 12.18L34.59 12.18ZM44.18 23.22L44.18 23.22Q44.18 24.34 43.26 25.20Q42.35 26.05 41.19 26.05L41.19 26.05Q40.81 26.05 40.69 25.87Q40.57 25.69 40.57 25.40Q40.57 25.11 40.64 24.84L40.64 24.84Q40.02 25.05 39.27 25.47Q38.52 25.90 37.43 26.74Q36.33 27.57 36.33 27.98L36.33 27.98Q36.33 28.12 36.73 28.12Q37.14 28.12 37.97 27.84Q38.81 27.56 39.14 27.56Q39.48 27.56 39.58 27.59L39.58 27.59Q39.80 27.71 40.06 28.11Q40.31 28.51 40.31 28.75Q40.31 28.98 39.87 29.35Q39.43 29.73 38.86 29.92Q38.30 30.12 38.11 30.22L38.11 30.22Q34.50 32.24 34.50 32.99L34.50 32.99Q34.50 34.33 36.78 34.33L36.78 34.33Q38.23 34.33 39.70 33.40L39.70 33.40Q40.95 32.62 41.95 31.80Q42.95 30.99 43.21 30.80Q43.48 30.62 43.61 30.62L43.61 30.62Q44.06 30.62 44.06 31.61Q44.06 32.60 43.94 32.92Q43.82 33.23 43.25 33.69L43.25 33.69Q39.60 36.67 36.33 36.67L36.33 36.67Q34.59 36.67 33.55 36.19L33.55 36.19Q31.63 35.32 31.63 33.52L31.63 33.52Q31.63 31.16 34.90 29.95L34.90 29.95Q34.25 29.66 34.06 29.21Q33.87 28.75 33.87 27.75Q33.87 26.75 34.80 25.64Q35.73 24.52 37.08 23.80L37.08 23.80Q40.09 22.17 42.45 22.17L42.45 22.17Q43.02 22.17 43.60 22.45Q44.18 22.72 44.18 23.22ZM57.59 11.61L57.59 11.61Q53.99 17.03 50.57 22.94L50.57 22.94Q51.35 22.53 52.34 22.35Q53.32 22.17 53.72 22.17Q54.12 22.17 54.41 22.20Q54.70 22.23 55.16 22.39Q55.61 22.55 55.94 22.84L55.94 22.84Q56.72 23.54 56.72 24.82Q56.72 26.10 56.03 27.63Q55.34 29.16 54.15 30.70Q52.96 32.24 51.55 33.56Q50.14 34.89 48.52 35.73Q46.89 36.56 45.49 36.56L45.49 36.56Q44.84 36.56 44.00 35.73Q43.15 34.89 43.15 33.52Q43.15 32.15 44.33 29.28Q45.51 26.41 47.19 23.45Q48.88 20.48 50.63 17.66Q52.38 14.84 53.61 13.05Q54.84 11.25 55.11 10.98Q55.39 10.71 56.11 10.52Q56.84 10.33 57.37 10.34Q57.90 10.35 57.90 10.83L57.90 10.83Q57.90 11.13 57.59 11.61ZM52.98 28.02L52.98 28.02Q53.68 26.79 53.68 25.78Q53.68 24.77 53.04 24.77Q52.40 24.77 51.07 25.33Q49.75 25.88 49.56 25.88Q49.37 25.88 49.06 25.58L49.06 25.58Q45.73 31.57 45.73 33.23L45.73 33.23Q45.73 34.00 46.23 34.00L46.23 34.00Q47.41 34.00 49.63 32.03Q51.85 30.05 52.98 28.02ZM58.45 32.58L58.45 32.58L58.43 32.86Q58.43 33.28 58.75 33.59Q59.08 33.90 59.35 33.90L59.35 33.90Q61.40 33.90 62.98 33.28Q64.57 32.67 64.57 32.05L64.57 32.05Q64.57 31.76 63.99 31.55Q63.42 31.33 62.06 31.02Q60.70 30.70 60.09 30.52Q59.47 30.34 59.11 30.19Q58.75 30.04 58.38 29.76L58.38 29.76Q57.58 29.20 57.58 28.08Q57.58 26.96 58.40 25.86Q59.23 24.75 60.48 23.97Q61.73 23.18 63.16 22.58L63.16 22.58Q66.00 21.41 67.93 21.41L67.93 21.41Q69.83 21.41 70.27 22.23L70.27 22.23Q70.41 22.52 70.41 22.88L70.41 22.88L70.41 22.99Q70.41 23.90 70.03 24.41Q69.64 24.93 68.81 25.34Q67.98 25.75 67.50 25.75Q67.01 25.75 66.88 25.68Q66.75 25.61 66.67 25.50Q66.58 25.39 66.45 25.34Q66.33 25.28 66.33 25.08Q66.33 24.87 66.50 24.66Q66.67 24.45 66.74 24.21L66.74 24.21Q65.61 24.26 64.38 24.73Q63.15 25.20 62.27 25.78Q61.39 26.36 60.81 26.89Q60.22 27.42 60.22 27.67Q60.22 27.92 61.01 28.07L61.01 28.07Q64.55 28.77 65.66 29.28Q66.77 29.80 67.20 30.45Q67.62 31.10 67.62 31.63L67.62 31.63Q67.62 32.72 66.75 33.69Q65.88 34.67 64.60 35.28L64.60 35.28Q61.85 36.63 59.81 36.63Q57.76 36.63 56.99 36.01Q56.21 35.38 56.21 34.53Q56.21 33.68 56.64 32.95Q57.08 32.22 57.76 32.22Q58.45 32.22 58.45 32.58ZM80.56 17.24L80.56 17.24Q80.56 18.21 79.66 19.19Q78.75 20.17 77.77 20.17Q76.78 20.17 76.78 19.15Q76.78 18.12 77.65 17.19Q78.51 16.26 79.55 16.26L79.55 16.26Q80.01 16.26 80.29 16.52Q80.56 16.77 80.56 17.24ZM77.79 32.15L77.79 32.15Q77.79 32.67 77.69 32.89L77.69 32.89Q76.85 34.60 75.02 35.65Q73.20 36.70 71.85 36.70Q70.50 36.70 69.52 35.79Q68.55 34.89 68.55 33.95Q68.55 33.01 69.49 31.21Q70.43 29.42 71.37 27.90Q72.31 26.38 72.31 26.25Q72.31 26.12 71.96 25.75Q71.61 25.37 71.61 25.19Q71.61 25.01 72.32 24.25Q73.02 23.49 74.04 22.75Q75.06 22.00 75.60 22.00Q76.14 22.00 76.56 22.48Q76.99 22.96 76.99 23.35Q76.99 23.75 72.92 30.75L72.92 30.75Q72.87 30.86 72.64 31.21Q72.41 31.56 72.28 31.79Q72.15 32.02 71.98 32.34L71.98 32.34Q71.64 33.03 71.64 33.49L71.64 33.49Q71.64 34.07 72.43 34.07Q73.21 34.07 74.06 33.53Q74.90 32.99 75.52 32.34L75.52 32.34Q77.13 30.62 77.35 30.62L77.35 30.62Q77.79 30.62 77.79 32.15ZM87.48 14.09L88.29 13.99L88.99 14.16Q89.14 14.16 89.26 14.31Q89.38 14.47 89.38 14.60Q89.38 14.74 89.02 15.34Q88.66 15.94 88.18 16.70Q87.69 17.46 87.65 17.53L87.65 17.53Q88.99 17.42 89.54 17.42Q90.10 17.42 90.30 17.50Q90.51 17.58 90.77 17.93Q91.04 18.28 91.26 18.46Q91.48 18.64 91.48 19.00Q91.48 19.35 91.05 19.60Q90.61 19.85 90.11 19.90L90.11 19.90Q86.15 20.29 85.74 20.31L85.74 20.31Q84.36 22.43 81.87 26.92Q79.38 31.40 79.23 32.53L79.23 32.53Q79.16 33.04 79.16 33.37L79.16 33.37Q79.16 34.03 79.86 34.03Q80.56 34.03 81.42 33.50Q82.27 32.96 82.99 32.33L82.99 32.33Q84.90 30.62 85.04 30.62L85.04 30.62Q85.48 30.62 85.48 32.15L85.48 32.15Q85.48 32.99 84.71 33.66L84.71 33.66Q82.99 35.15 81.81 35.90Q80.63 36.65 79.45 36.65L79.45 36.65Q79.19 36.65 78.97 36.60L78.97 36.60Q77.60 36.34 76.96 35.60Q76.32 34.85 76.33 33.59Q76.34 32.33 77.08 30.52Q77.83 28.72 78.96 26.69L78.96 26.69Q80.80 23.37 82.65 20.47L82.65 20.47L82.00 20.55Q80.01 20.77 79.69 20.77L79.69 20.77L79.54 20.77Q79.04 20.77 78.58 20.58Q78.12 20.38 78.12 20.09Q78.12 19.80 78.37 19.53Q78.61 19.25 78.66 19.10L78.66 19.10Q78.78 18.72 79.56 18.26Q80.34 17.80 80.73 17.77Q81.13 17.75 81.49 17.73Q81.86 17.71 82.31 17.70Q82.77 17.68 83.01 17.66L83.01 17.66L84.54 17.59Q85.98 15.44 86.52 14.83Q87.06 14.21 87.14 14.15Q87.23 14.09 87.48 14.09L87.48 14.09ZM95.81 23.22L95.81 23.22Q95.81 24.34 94.89 25.20Q93.98 26.05 92.81 26.05L92.81 26.05Q92.44 26.05 92.32 25.87Q92.20 25.69 92.20 25.40Q92.20 25.11 92.27 24.84L92.27 24.84Q91.65 25.05 90.90 25.47Q90.15 25.90 89.06 26.74Q87.96 27.57 87.96 27.98L87.96 27.98Q87.96 28.12 88.36 28.12Q88.76 28.12 89.60 27.84Q90.44 27.56 90.77 27.56Q91.11 27.56 91.21 27.59L91.21 27.59Q91.43 27.71 91.69 28.11Q91.94 28.51 91.94 28.75Q91.94 28.98 91.50 29.35Q91.05 29.73 90.49 29.92Q89.93 30.12 89.74 30.22L89.74 30.22Q86.13 32.24 86.13 32.99L86.13 32.99Q86.13 34.33 88.41 34.33L88.41 34.33Q89.86 34.33 91.33 33.40L91.33 33.40Q92.58 32.62 93.58 31.80Q94.58 30.99 94.84 30.80Q95.10 30.62 95.24 30.62L95.24 30.62Q95.69 30.62 95.69 31.61Q95.69 32.60 95.57 32.92Q95.45 33.23 94.88 33.69L94.88 33.69Q91.23 36.67 87.96 36.67L87.96 36.67Q86.22 36.67 85.18 36.19L85.18 36.19Q83.26 35.32 83.26 33.52L83.26 33.52Q83.26 31.16 86.53 29.95L86.53 29.95Q85.88 29.66 85.69 29.21Q85.50 28.75 85.50 27.75Q85.50 26.75 86.43 25.64Q87.36 24.52 88.71 23.80L88.71 23.80Q91.72 22.17 94.08 22.17L94.08 22.17Q94.64 22.17 95.22 22.45Q95.81 22.72 95.81 23.22ZM110.84 33.86L110.84 33.86Q107.67 36.70 103.26 36.70L103.26 36.70Q100.59 36.70 99.45 35.57L99.45 35.57Q98.80 34.96 98.80 33.40L98.80 33.40Q98.80 31.01 102.44 30.31L102.44 30.31Q103.58 30.09 105.19 30.09Q106.79 30.09 109.58 30.69L109.58 30.69Q111.07 29.03 113.13 25.81Q115.19 22.58 116.38 20.84Q117.58 19.10 119.10 17.28Q120.62 15.46 122.28 13.99L122.28 13.99Q125.64 10.98 128.94 10.98L128.94 10.98Q130.41 10.98 131.06 11.72Q131.71 12.47 131.71 13.48Q131.71 14.50 130.78 15.85Q129.85 17.20 128.63 18.24Q127.40 19.29 126.22 20.01Q125.03 20.74 124.35 20.74Q123.66 20.74 123.17 20.16Q122.67 19.58 122.67 19.04Q122.67 18.50 122.82 18.29Q122.96 18.07 123.12 18.07Q123.27 18.07 123.30 18.26L123.30 18.26Q123.85 18.09 125.05 17.19Q126.26 16.30 127.25 15.32Q128.24 14.35 128.24 14.10Q128.24 13.85 127.94 13.85Q127.64 13.85 127.13 14.06Q126.62 14.26 125.76 14.90Q124.91 15.54 123.92 16.55L123.92 16.55Q121.53 18.94 118.59 23.34L118.59 23.34Q117.90 24.33 116.66 26.22L116.66 26.22Q114.11 30.07 113.02 31.49L113.02 31.49Q121.78 33.80 125.54 33.80L125.54 33.80Q127.29 33.80 127.99 33.35L127.99 33.35Q128.24 33.20 128.33 33.20Q128.41 33.20 128.41 33.33Q128.41 33.47 128.26 33.74Q128.11 34.02 127.50 34.91Q126.89 35.79 126.60 35.97L126.60 35.97Q125.76 36.46 123.76 36.46Q121.75 36.46 119.93 36.17Q118.11 35.88 117.00 35.60Q115.89 35.32 113.71 34.68Q111.53 34.05 110.84 33.86ZM104.61 32.82L104.61 32.82Q102.37 32.82 102.37 33.35L102.37 33.35Q102.37 33.56 102.75 33.71Q103.14 33.86 103.67 33.86L103.67 33.86Q105.32 33.86 106.86 32.99L106.86 32.99Q105.55 32.82 104.61 32.82ZM139.25 22.98Q139.76 22.98 140.30 23.44Q140.84 23.90 140.84 24.85Q140.84 25.80 140.17 27.31Q139.50 28.82 138.34 30.39Q137.18 31.95 135.79 33.33Q134.39 34.70 132.78 35.58Q131.16 36.46 129.85 36.46Q128.53 36.46 127.74 35.63Q126.94 34.80 126.94 33.33Q126.94 31.85 127.67 30.05Q128.40 28.26 129.54 26.88Q130.69 25.51 132.02 24.41L132.02 24.41Q134.80 22.17 136.91 22.17L136.91 22.17Q137.85 22.17 138.33 22.64L138.33 22.64Q138.50 22.79 138.50 22.91L138.50 22.91L138.50 23.01Q138.74 22.98 139.25 22.98ZM137.52 25.25L137.52 25.25L137.40 25.25Q136.80 25.25 136.80 24.38L136.80 24.38Q135.56 24.79 134.19 25.81Q132.82 26.84 131.75 28.24L131.75 28.24Q129.56 31.04 129.52 32.98L129.52 32.98Q129.52 33.93 130.22 33.93Q130.93 33.93 132.31 33.01Q133.69 32.09 135.05 30.38Q136.41 28.67 137.09 27.41Q137.76 26.16 137.76 25.70Q137.76 25.25 137.52 25.25ZM145.78 24.64Q147.43 23.51 149.02 22.89Q150.61 22.28 151.77 22.28Q152.94 22.28 153.26 22.94L153.26 22.94Q153.93 22.17 154.92 22.12L154.92 22.12Q155.21 22.11 155.64 22.11Q156.06 22.11 156.17 22.22Q156.27 22.33 156.35 22.64Q156.44 22.94 156.46 22.98Q156.47 23.01 156.47 23.09Q156.47 23.17 156.39 23.28Q156.30 23.39 156.19 23.49Q156.08 23.59 156.06 23.61L156.06 23.61Q152.29 29.03 148.34 35.97L148.34 35.97Q152.41 32.36 155.62 30.79L155.62 30.79Q155.83 30.69 156.01 30.69L156.01 30.69Q156.29 30.69 156.37 31.04Q156.46 31.39 156.46 32.04Q156.46 32.68 156.38 32.84Q156.30 32.99 155.59 33.45Q154.87 33.92 153.72 34.65Q152.58 35.38 151.30 36.27L151.30 36.27Q148.22 38.41 146.24 40.77L146.24 40.77Q143.67 43.86 142.56 45.76L142.56 45.76Q142.15 46.49 141.18 46.49L141.18 46.49Q139.25 46.49 139.25 44.66L139.25 44.66Q139.25 42.80 141.08 40.85L141.08 40.85Q142.44 39.40 143.59 38.48Q144.73 37.56 144.84 37.44L144.84 37.44Q146.10 35.54 148.27 32.05L148.27 32.05Q146.43 33.98 144.69 35.13Q142.96 36.27 142.10 36.27L142.10 36.27Q139.49 36.27 139.49 34.03L139.49 34.03Q139.49 32.26 140.39 30.45Q141.30 28.63 142.72 27.21Q144.14 25.78 145.78 24.64ZM152.29 24.21L152.29 24.21Q150.31 24.64 148.56 25.62Q146.82 26.60 145.69 27.72Q144.56 28.84 143.74 30.02L143.74 30.02Q142.20 32.22 142.20 33.44L142.20 33.44Q142.20 33.73 142.35 33.73Q142.50 33.73 143.00 33.42Q143.50 33.11 144.43 32.37Q145.35 31.63 146.48 30.60L146.48 30.60Q149.09 28.19 152.29 24.21ZM166.71 22.98Q167.22 22.98 167.76 23.44Q168.30 23.90 168.30 24.85Q168.30 25.80 167.63 27.31Q166.97 28.82 165.81 30.39Q164.64 31.95 163.25 33.33Q161.86 34.70 160.24 35.58Q158.63 36.46 157.31 36.46Q156.00 36.46 155.20 35.63Q154.41 34.80 154.41 33.33Q154.41 31.85 155.13 30.05Q155.86 28.26 157.00 26.88Q158.15 25.51 159.48 24.41L159.48 24.41Q162.27 22.17 164.37 22.17L164.37 22.17Q165.31 22.17 165.79 22.64L165.79 22.64Q165.96 22.79 165.96 22.91L165.96 22.91L165.96 23.01Q166.20 22.98 166.71 22.98ZM164.99 25.25L164.99 25.25L164.87 25.25Q164.27 25.25 164.27 24.38L164.27 24.38Q163.02 24.79 161.65 25.81Q160.29 26.84 159.21 28.24L159.21 28.24Q157.02 31.04 156.99 32.98L156.99 32.98Q156.99 33.93 157.69 33.93Q158.39 33.93 159.77 33.01Q161.16 32.09 162.52 30.38Q163.87 28.67 164.55 27.41Q165.22 26.16 165.22 25.70Q165.22 25.25 164.99 25.25Z">
            </path>
            </g>
            
          </svg>